<?xml version="1.0" standalone="no"?>
<!DOCTYPE svg PUBLIC "-//W3C//DTD SVG 20010904//EN"
 "http://www.w3.org/TR/2001/REC-SVG-20010904/DTD/svg10.dtd">
<svg version="1.0" xmlns="http://www.w3.org/2000/svg"
 width="225.000000pt" height="225.000000pt" viewBox="0 0 225.000000 225.000000"
 preserveAspectRatio="xMidYMid meet">

<g transform="translate(0.000000,225.000000) scale(0.100000,-0.100000)"
fill="#000000" stroke="none">
<path d="M328 1125 l2 -865 255 0 255 0 1 323 0 322 43 -145 43 -145 198 0
198 0 15 50 c8 28 27 93 43 145 l28 95 0 -322 1 -323 255 0 255 0 0 865 0 865
-290 0 -289 0 -30 -97 c-16 -54 -59 -197 -96 -318 -87 -290 -86 -287 -91 -282
-3 3 -39 117 -80 253 -41 137 -88 293 -105 347 l-30 97 -292 0 -292 0 3 -865z
m664 380 l128 -420 0 -185 c0 -102 0 -195 0 -208 0 -22 -3 -23 -72 -20 l-73 3
-50 170 c-28 94 -71 239 -95 322 -25 84 -48 153 -51 153 -4 0 -7 -224 -8 -497
l-1 -498 -190 -3 -190 -2 0 805 0 805 237 -2 237 -3 128 -420z"/>
</g>
</svg>
